<?xml version="1.0" encoding="utf-8"?>
<!-- Generator: Adobe Illustrator 24.0.3, SVG Export Plug-In . SVG Version: 6.00 Build 0)  -->
<svg version="1.1" id="Layer_1" xmlns="http://www.w3.org/2000/svg" xmlns:xlink="http://www.w3.org/1999/xlink" x="0px" y="0px"
	 viewBox="0 0 211.01 95.64" style="enable-background:new 0 0 211.01 95.64;" xml:space="preserve">
<style type="text/css">
	.st0{fill:#492979;}
</style>
<path class="st0" d="M46.03,14.81H13.91v22.15h197.1v13.07H13.91v43.88H0V1.73h46.03V14.81z"/>
<path class="st0" d="M76.65,60.24h34.57v12.66H50.03L87.7,27.28H58.03V14.75h56.24L76.65,60.24z"/>
<path class="st0" d="M176.6,15.52l-11.28,6.69c-2.11-3.66-4.12-6.05-6.03-7.16c-1.99-1.27-4.56-1.91-7.7-1.91
	c-3.86,0-7.07,1.1-9.61,3.28c-2.55,2.15-3.82,4.86-3.82,8.12c0,4.5,3.34,8.12,10.03,10.87l9.19,3.76
	c7.48,3.03,12.95,6.72,16.42,11.07s5.19,9.7,5.19,16.03c0,8.48-2.83,15.48-8.48,21.01c-5.69,5.57-12.76,8.36-21.19,8.36
	c-8,0-14.61-2.37-19.82-7.1c-5.13-4.74-8.34-11.4-9.61-20l14.09-3.1c0.63,5.41,1.75,9.16,3.34,11.22c2.87,3.98,7.04,5.97,12.54,5.97
	c4.34,0,7.94-1.45,10.81-4.36c2.87-2.9,4.3-6.59,4.3-11.04c0-1.79-0.25-3.43-0.75-4.93c-0.5-1.49-1.28-2.87-2.33-4.12
	c-1.06-1.25-2.42-2.43-4.09-3.52c-1.67-1.09-3.66-2.14-5.97-3.13l-8.9-3.7c-12.62-5.33-18.92-13.13-18.92-23.4
	c0-6.92,2.65-12.72,7.94-17.37C137.24,2.35,143.83,0,151.71,0C162.34,0,170.63,5.17,176.6,15.52z"/>
</svg>
